# Blender v3.2.2 OBJ File: 'icon_1.blend'
# www.blender.org
mtllib _icon_1.mtl
o SubMesh_0_Mesh_0.001
v 0.010000 -0.005300 -0.005300
v 0.005300 -0.005300 -0.010000
v 0.010000 -0.010000 -0.010000
v 0.005300 0.005300 -0.010000
v 0.010000 0.005300 -0.005300
v 0.005300 0.005300 0.010000
v 0.005300 -0.005300 0.010000
v 0.005300 -0.010000 -0.005300
v 0.010000 0.010000 -0.010000
v -0.005300 0.005300 -0.010000
v 0.010000 0.005300 0.005300
v -0.005300 -0.005300 -0.010000
v 0.010000 -0.005300 0.005300
v -0.005300 -0.005300 0.010000
v -0.005300 0.005300 0.010000
v 0.005300 0.010000 -0.005300
v 0.010000 0.010000 0.010000
v -0.010000 0.005300 -0.005300
v -0.010000 -0.005300 -0.005300
v 0.005300 0.010000 0.005300
v 0.010000 -0.010000 0.010000
v -0.010000 -0.005300 0.005300
v -0.010000 0.005300 0.005300
v 0.005300 -0.010000 0.005300
v -0.010000 0.010000 -0.010000
v -0.005300 0.010000 -0.005300
v -0.010000 -0.010000 -0.010000
v -0.005300 -0.010000 -0.005300
v -0.010000 -0.010000 0.010000
v -0.005300 -0.010000 0.005300
v -0.010000 0.010000 0.010000
v -0.005300 0.010000 0.005300
v 0.005300 -0.005300 -0.005300
v 0.005300 0.005300 -0.005300
v 0.005300 -0.005300 0.005300
v 0.005300 0.005300 0.005300
v -0.005300 -0.005300 -0.005300
v -0.005300 0.005300 -0.005300
v -0.005300 -0.005300 0.005300
v -0.005300 0.005300 0.005300
v -0.001850 -0.001850 0.001850
v -0.001850 0.001850 0.001850
v -0.001850 -0.001850 -0.001850
v -0.001850 0.001850 -0.001850
v 0.001850 -0.001850 0.001850
v 0.001850 0.001850 0.001850
v 0.001850 -0.001850 -0.001850
v 0.001850 0.001850 -0.001850
vt 0.433750 0.191250
vt 0.375000 0.250000
vt 0.566250 0.191250
vt 0.625000 0.000000
vt 0.566250 0.058750
vt 0.625000 0.250000
vt 0.375000 0.750000
vt 0.433750 0.691250
vt 0.375000 0.500000
vt 0.625000 0.500000
vt 0.566250 0.558750
vt 0.625000 0.750000
vt 0.125000 0.750000
vt 0.183750 0.691250
vt 0.125000 0.500000
vt 0.316250 0.558750
vt 0.683750 0.691250
vt 0.816250 0.691250
vt 0.816250 0.558750
vt 0.875000 0.500000
vt 0.683750 0.558750
vt 0.000000 0.000000
vt 0.000000 0.000000
vt 0.000000 0.000000
vt 0.000000 0.000000
vt 0.000000 0.000000
vt 0.000000 0.000000
vt 0.000000 0.000000
vt 0.000000 0.000000
vt 0.000000 0.000000
vt 0.000000 0.000000
vt 0.000000 0.000000
vt 0.000000 0.000000
vt 0.375000 0.250000
vt 0.566250 0.191250
vt 0.625000 0.250000
vt 0.625000 0.000000
vt 0.433750 0.058750
vt 0.375000 0.000000
vt 0.625000 0.750000
vt 0.433750 0.691250
vt 0.566250 0.691250
vt 0.375000 0.500000
vt 0.625000 0.558750
vt 0.433750 0.558750
vt 0.375000 0.750000
vt 0.125000 0.691250
vt 0.316250 0.691250
vt 0.316250 0.558750
vt 0.125000 0.500000
vt 0.816250 0.691250
vt 0.875000 0.750000
vt 0.875000 0.500000
vt 0.683750 0.558750
vt 0.625000 0.500000
vt 0.125000 0.750000
vt 0.183750 0.558750
vt 0.183750 0.750000
vt 0.375000 0.500000
vt 0.316250 0.691250
vt 0.316250 0.500000
vt 0.625000 0.500000
vt 0.683750 0.750000
vt 0.625000 0.750000
vt 0.875000 0.750000
vt 0.816250 0.500000
vt 0.875000 0.500000
vt 0.000000 0.000000
vt 0.000000 0.000000
vt 0.000000 0.000000
vt 0.000000 0.000000
vt 0.000000 0.000000
vt 0.000000 0.000000
vt 0.000000 0.000000
vt 0.000000 0.000000
vt 0.000000 0.000000
vt 0.000000 0.000000
vt 0.000000 0.000000
vt 0.000000 0.000000
vt 0.375000 0.000000
vt 0.433750 0.250000
vt 0.375000 0.250000
vt 0.625000 0.000000
vt 0.566250 0.000000
vt 0.375000 0.500000
vt 0.433750 0.750000
vt 0.375000 0.750000
vt 0.566250 0.500000
vt 0.625000 0.750000
vt 0.000000 0.000000
vt 0.000000 0.000000
vt 0.000000 0.000000
vt 0.000000 0.000000
vt 0.000000 0.000000
vt 0.000000 0.000000
vt 0.433750 0.058750
vt 0.375000 0.000000
vt 0.566250 0.691250
vt 0.433750 0.558750
vt 0.316250 0.691250
vt 0.183750 0.558750
vt 0.875000 0.750000
vt 0.000000 0.000000
vt 0.000000 0.000000
vt 0.000000 0.000000
vt 0.000000 0.000000
vt 0.375000 0.191250
vt 0.566250 0.058750
vt 0.125000 0.750000
vt 0.625000 0.691250
vt 0.816250 0.558750
vt 0.125000 0.500000
vt 0.375000 0.750000
vt 0.683750 0.558750
vt 0.816250 0.691250
vt 0.000000 0.000000
vt 0.000000 0.000000
vt 0.625000 0.250000
vt 0.625000 0.500000
vt 0.000000 0.000000
vt 0.000000 0.000000
vt 0.000000 0.000000
vt 0.000000 0.000000
vt 0.625000 0.000000
vt 0.375000 0.250000
vt 0.375000 0.000000
vt 0.625000 0.250000
vt 0.375000 0.500000
vt 0.625000 0.500000
vt 0.375000 0.750000
vt 0.625000 0.750000
vt 0.375000 1.000000
vt 0.125000 0.750000
vt 0.125000 0.500000
vt 0.875000 0.500000
vt 0.625000 1.000000
vt 0.875000 0.750000
vn 1.0000 0.0000 0.0000
vn -1.0000 0.0000 0.0000
vn -0.0000 0.0000 -1.0000
vn 0.0000 0.0000 1.0000
vn 0.0000 -1.0000 0.0000
vn 0.0000 1.0000 0.0000
usemtl Primary
s off
f 5/1/1 9/2/1 11/3/1
f 21/4/1 13/5/1 17/6/1
f 27/7/2 19/8/2 25/9/2
f 31/10/2 23/11/2 29/12/2
f 3/13/3 2/14/3 9/15/3
f 25/9/3 10/16/3 27/7/3
f 14/17/4 29/12/4 7/18/4
f 6/19/4 17/20/4 15/21/4
f 8/22/5 3/23/5 24/24/5
f 16/25/6 9/26/6 26/27/6
f 30/28/5 29/29/5 28/30/5
f 32/31/6 31/32/6 20/33/6
f 16/34/2 36/35/2 20/36/2
f 24/37/2 33/38/2 8/39/2
f 30/40/1 37/41/1 39/42/1
f 26/43/1 40/44/1 38/45/1
f 28/46/4 33/47/4 37/48/4
f 38/49/4 16/50/4 26/43/4
f 30/40/3 35/51/3 24/52/3
f 20/53/3 40/54/3 32/55/3
f 1/56/4 34/57/4 33/58/4
f 18/59/4 37/60/4 38/61/4
f 23/62/3 39/63/3 22/64/3
f 13/65/3 36/66/3 11/67/3
f 1/68/6 35/69/6 13/70/6
f 5/71/5 36/72/5 34/73/5
f 22/74/6 37/75/6 19/76/6
f 23/77/5 38/78/5 40/79/5
f 2/80/2 34/81/2 4/82/2
f 7/83/2 36/35/2 35/84/2
f 10/85/1 37/86/1 12/87/1
f 40/88/1 14/89/1 39/42/1
f 2/90/6 37/75/6 33/91/6
f 38/78/5 4/92/5 34/73/5
f 14/93/6 35/69/6 39/94/6
f 36/72/5 15/95/5 40/79/5
f 5/1/1 1/96/1 3/97/1
f 9/2/1 17/6/1 11/3/1
f 5/1/1 3/97/1 9/2/1
f 21/4/1 3/97/1 1/96/1
f 13/5/1 11/3/1 17/6/1
f 21/4/1 1/96/1 13/5/1
f 27/7/2 29/12/2 22/98/2
f 19/8/2 18/99/2 25/9/2
f 27/7/2 22/98/2 19/8/2
f 31/10/2 25/9/2 18/99/2
f 23/11/2 22/98/2 29/12/2
f 31/10/2 18/99/2 23/11/2
f 3/13/3 27/7/3 12/100/3
f 2/14/3 4/101/3 9/15/3
f 3/13/3 12/100/3 2/14/3
f 25/9/3 9/15/3 4/101/3
f 10/16/3 12/100/3 27/7/3
f 25/9/3 4/101/3 10/16/3
f 14/17/4 15/21/4 29/12/4
f 15/21/4 31/10/4 29/12/4
f 29/12/4 21/102/4 7/18/4
f 6/19/4 7/18/4 17/20/4
f 7/18/4 21/102/4 17/20/4
f 17/20/4 31/10/4 15/21/4
f 8/22/5 28/30/5 27/103/5
f 3/23/5 21/104/5 24/24/5
f 8/22/5 27/103/5 3/23/5
f 16/25/6 20/33/6 17/105/6
f 9/26/6 25/106/6 26/27/6
f 16/25/6 17/105/6 9/26/6
f 30/28/5 24/24/5 21/104/5
f 29/29/5 27/103/5 28/30/5
f 30/28/5 21/104/5 29/29/5
f 32/31/6 26/27/6 25/106/6
f 31/32/6 17/105/6 20/33/6
f 32/31/6 25/106/6 31/32/6
f 16/34/2 34/107/2 36/35/2
f 24/37/2 35/108/2 33/38/2
f 30/40/1 28/46/1 37/41/1
f 26/43/1 32/55/1 40/44/1
f 28/46/4 8/109/4 33/47/4
f 38/49/4 34/57/4 16/50/4
f 30/40/3 39/110/3 35/51/3
f 20/53/3 36/111/3 40/54/3
f 1/56/4 5/112/4 34/57/4
f 18/59/4 19/113/4 37/60/4
f 23/62/3 40/114/3 39/63/3
f 13/65/3 35/115/3 36/66/3
f 1/68/6 33/91/6 35/69/6
f 5/71/5 11/116/5 36/72/5
f 22/74/6 39/94/6 37/75/6
f 23/77/5 18/117/5 38/78/5
f 2/80/2 33/38/2 34/81/2
f 7/83/2 6/118/2 36/35/2
f 10/85/1 38/45/1 37/86/1
f 40/88/1 15/119/1 14/89/1
f 2/90/6 12/120/6 37/75/6
f 38/78/5 10/121/5 4/92/5
f 14/93/6 7/122/6 35/69/6
f 36/72/5 6/123/5 15/95/5
usemtl Secondary
f 42/124/2 43/125/2 41/126/2
f 44/127/3 47/128/3 43/125/3
f 48/129/1 45/130/1 47/128/1
f 46/131/4 41/132/4 45/130/4
f 47/128/5 41/133/5 43/134/5
f 44/135/6 46/131/6 48/129/6
f 42/124/2 44/127/2 43/125/2
f 44/127/3 48/129/3 47/128/3
f 48/129/1 46/131/1 45/130/1
f 46/131/4 42/136/4 41/132/4
f 47/128/5 45/130/5 41/133/5
f 44/135/6 42/137/6 46/131/6
